<svg width="148" height="19" viewBox="0 0 148 19" fill="none" xmlns="http://www.w3.org/2000/svg">
<path d="M14.016 16.176C14 16.448 13.96 16.736 13.896 17.04C13.848 17.344 13.696 17.592 13.44 17.784C13.248 17.944 13.032 18.04 12.792 18.072C12.552 18.104 12.312 18.088 12.072 18.024C11.848 17.976 11.632 17.896 11.424 17.784C11.216 17.656 11.048 17.504 10.92 17.328C10.376 16.656 9.872 15.968 9.408 15.264C8.96 14.544 8.504 13.824 8.04 13.104L6.024 10.056C5.752 9.624 5.464 9.144 5.16 8.616C4.856 8.072 4.544 7.568 4.224 7.104L4.152 16.272V16.488C4.152 16.744 4.104 17 4.008 17.256C3.928 17.496 3.784 17.704 3.576 17.88C3.416 18.008 3.208 18.096 2.952 18.144C2.552 18.224 2.216 18.2 1.944 18.072C1.688 17.944 1.48 17.768 1.32 17.544C1.176 17.32 1.072 17.064 1.008 16.776C0.96 16.472 0.952 16.176 0.984 15.888V15.48L1.032 13.608L1.056 10.128C1.072 9.616 1.08 9.096 1.08 8.568C1.08 8.024 1.08 7.472 1.08 6.912C1.064 6.224 1.064 5.496 1.08 4.728C1.112 3.96 1.144 3.24 1.176 2.568C1.208 2.2 1.296 1.888 1.44 1.632C1.504 1.408 1.672 1.216 1.944 1.056C2.12 0.943999 2.344 0.871999 2.616 0.839999C2.904 0.808 3.152 0.816 3.36 0.863999C3.44 0.895999 3.52 0.935999 3.6 0.983999C3.68 1.016 3.76 1.056 3.84 1.104C3.92 1.168 3.992 1.232 4.056 1.296C4.136 1.36 4.208 1.432 4.272 1.512C4.352 1.592 4.424 1.68 4.488 1.776C4.552 1.856 4.616 1.936 4.68 2.016C4.728 2.112 4.776 2.2 4.824 2.28C4.872 2.36 4.928 2.44 4.992 2.52L5.256 2.904L10.8 11.64V10.056C10.8 9.544 10.792 9.024 10.776 8.496C10.776 7.952 10.768 7.392 10.752 6.816C10.752 6.144 10.752 5.424 10.752 4.656C10.768 3.888 10.792 3.168 10.824 2.496C10.824 2.224 10.904 1.912 11.064 1.56C11.144 1.352 11.28 1.184 11.472 1.056C11.664 0.927999 11.88 0.839999 12.12 0.792C12.36 0.743999 12.6 0.743999 12.84 0.792C13.08 0.839999 13.288 0.935999 13.464 1.08C13.512 1.128 13.56 1.184 13.608 1.248C13.656 1.312 13.696 1.384 13.728 1.464C13.808 1.672 13.856 1.856 13.872 2.016C13.92 2.24 13.944 2.44 13.944 2.616C13.944 4.616 13.944 6.656 13.944 8.736C13.96 10.816 13.976 12.856 13.992 14.856C13.992 15.08 14 15.304 14.016 15.528C14.032 15.736 14.032 15.952 14.016 16.176ZM24.264 14.712C24.456 14.664 24.648 14.632 24.84 14.616C25.048 14.6 25.232 14.624 25.392 14.688C25.568 14.752 25.712 14.864 25.824 15.024C25.936 15.168 25.992 15.376 25.992 15.648C25.992 15.84 25.944 16.024 25.848 16.2C25.752 16.376 25.632 16.536 25.488 16.68C25.344 16.824 25.184 16.952 25.008 17.064C24.832 17.16 24.664 17.24 24.504 17.304C24.04 17.512 23.504 17.672 22.896 17.784C22.304 17.896 21.688 17.936 21.048 17.904C20.184 17.872 19.352 17.704 18.552 17.4C17.768 17.08 17.152 16.56 16.704 15.84C16.288 15.136 16.04 14.352 15.96 13.488C15.88 12.624 15.92 11.808 16.08 11.04C16.256 10.112 16.552 9.36 16.968 8.784C17.4 8.192 17.912 7.72 18.504 7.368C19.224 6.952 20.032 6.736 20.928 6.72C21.824 6.704 22.68 6.88 23.496 7.248C24.04 7.488 24.528 7.816 24.96 8.232C25.392 8.632 25.72 9.12 25.944 9.696C26.008 9.84 26.056 10.016 26.088 10.224C26.136 10.432 26.168 10.656 26.184 10.896C26.2 11.12 26.2 11.344 26.184 11.568C26.168 11.792 26.128 11.992 26.064 12.168C25.968 12.456 25.848 12.68 25.704 12.84C25.56 13 25.376 13.12 25.152 13.2C24.928 13.28 24.656 13.336 24.336 13.368C24.032 13.384 23.664 13.4 23.232 13.416C22.848 13.432 22.488 13.44 22.152 13.44C21.816 13.44 21.472 13.44 21.12 13.44C20.768 13.424 20.4 13.416 20.016 13.416C19.648 13.4 19.232 13.384 18.768 13.368C18.72 13.688 18.76 13.968 18.888 14.208C19.032 14.432 19.224 14.624 19.464 14.784C19.704 14.928 19.976 15.04 20.28 15.12C20.584 15.2 20.88 15.248 21.168 15.264C21.712 15.296 22.232 15.256 22.728 15.144C23.224 15.016 23.736 14.872 24.264 14.712ZM23.232 10.056C22.928 9.704 22.608 9.448 22.272 9.288C22.016 9.176 21.744 9.128 21.456 9.144C21.184 9.144 20.92 9.184 20.664 9.264C20.2 9.376 19.808 9.616 19.488 9.984C19.456 10.016 19.4 10.096 19.32 10.224C19.24 10.336 19.16 10.456 19.08 10.584C19.016 10.712 18.968 10.832 18.936 10.944C18.904 11.056 18.92 11.112 18.984 11.112H23.688C23.672 10.888 23.632 10.704 23.568 10.56C23.504 10.4 23.392 10.232 23.232 10.056ZM35.3415 13.416C35.5175 13.64 35.7575 13.928 36.0615 14.28C36.3815 14.616 36.6775 14.976 36.9495 15.36C37.2375 15.728 37.4695 16.096 37.6455 16.464C37.8215 16.832 37.8695 17.152 37.7895 17.424C37.6615 17.84 37.4215 18.08 37.0695 18.144C36.7175 18.208 36.3495 18.144 35.9655 17.952C35.6935 17.824 35.3815 17.6 35.0295 17.28C34.6775 16.96 34.3335 16.624 33.9975 16.272C33.6775 15.92 33.3895 15.592 33.1335 15.288C32.8775 14.968 32.7015 14.744 32.6055 14.616C32.6055 14.6 32.5975 14.592 32.5815 14.592C32.5815 14.592 32.5815 14.584 32.5815 14.568C32.4695 14.696 32.3575 14.84 32.2455 15C32.1335 15.144 32.0135 15.288 31.8855 15.432C31.7255 15.624 31.5415 15.856 31.3335 16.128C31.1415 16.384 30.9255 16.64 30.6855 16.896C30.4615 17.152 30.2215 17.392 29.9655 17.616C29.7255 17.824 29.4855 17.976 29.2455 18.072C28.9255 18.2 28.6135 18.176 28.3095 18C28.0215 17.84 27.8375 17.616 27.7575 17.328C27.6615 16.992 27.6855 16.64 27.8295 16.272C27.9735 15.904 28.1655 15.552 28.4055 15.216C28.6455 14.864 28.9015 14.528 29.1735 14.208C29.4615 13.888 29.6935 13.608 29.8695 13.368C30.0455 13.144 30.1975 12.952 30.3255 12.792C30.4695 12.616 30.6055 12.448 30.7335 12.288C30.5095 12.048 30.2695 11.784 30.0135 11.496C29.7575 11.192 29.3975 10.8 28.9335 10.32C28.7735 10.144 28.5975 9.952 28.4055 9.744C28.2135 9.52 28.0375 9.288 27.8775 9.048C27.7175 8.808 27.5895 8.56 27.4935 8.304C27.3975 8.048 27.3735 7.784 27.4215 7.512C27.4695 7.272 27.5735 7.08 27.7335 6.936C27.8935 6.776 28.0855 6.672 28.3095 6.624C28.5335 6.56 28.7655 6.552 29.0055 6.6C29.2455 6.648 29.4695 6.744 29.6775 6.888C30.0935 7.192 30.4855 7.568 30.8535 8.016C31.2215 8.464 31.5815 8.888 31.9335 9.288C32.0455 9.432 32.1495 9.568 32.2455 9.696C32.3575 9.808 32.4615 9.92 32.5575 10.032C32.6375 9.904 32.7335 9.776 32.8455 9.648C32.9735 9.52 33.1015 9.368 33.2295 9.192C33.5495 8.808 33.8695 8.408 34.1895 7.992C34.5255 7.576 34.8935 7.216 35.2935 6.912C35.5015 6.752 35.7175 6.656 35.9415 6.624C36.1815 6.576 36.4055 6.584 36.6135 6.648C36.8215 6.696 37.0055 6.792 37.1655 6.936C37.3255 7.08 37.4295 7.256 37.4775 7.464C37.5415 7.72 37.5335 7.976 37.4535 8.232C37.3895 8.488 37.2775 8.736 37.1175 8.976C36.9735 9.216 36.8055 9.448 36.6135 9.672C36.4375 9.88 36.2695 10.072 36.1095 10.248C35.7415 10.648 35.4215 11.008 35.1495 11.328C34.8775 11.648 34.6215 11.952 34.3815 12.24C34.5255 12.4 34.6695 12.576 34.8135 12.768C34.9735 12.944 35.1495 13.16 35.3415 13.416ZM49.2705 7.416C49.3985 7.72 49.4065 8.056 49.2945 8.424C49.1985 8.792 49.0145 9.032 48.7425 9.144C48.5985 9.208 48.4065 9.264 48.1665 9.312C47.9265 9.344 47.6625 9.376 47.3745 9.408C47.1025 9.44 46.8305 9.464 46.5585 9.48C46.2865 9.496 46.0545 9.504 45.8625 9.504C45.8785 9.984 45.8945 10.48 45.9105 10.992C45.9265 11.488 45.9425 11.976 45.9585 12.456C45.9745 12.936 45.9825 13.4 45.9825 13.848C45.9825 14.28 45.9745 14.672 45.9585 15.024C45.9585 15.264 45.9585 15.544 45.9585 15.864C45.9585 16.168 45.9345 16.464 45.8865 16.752C45.8545 17.04 45.7985 17.296 45.7185 17.52C45.6385 17.728 45.5185 17.864 45.3585 17.928C44.8625 18.136 44.4065 18.192 43.9905 18.096C43.5905 18.016 43.3025 17.848 43.1265 17.592C42.9985 17.384 42.9025 17.144 42.8385 16.872C42.7745 16.584 42.7265 16.296 42.6945 16.008C42.6785 15.704 42.6705 15.416 42.6705 15.144C42.6865 14.856 42.6945 14.608 42.6945 14.4C42.7105 13.728 42.7185 12.968 42.7185 12.12C42.7345 11.256 42.7425 10.392 42.7425 9.528H42.3825C42.1905 9.528 41.9425 9.528 41.6385 9.528C41.3505 9.512 41.0545 9.488 40.7505 9.456C40.4625 9.408 40.1905 9.352 39.9345 9.288C39.6785 9.208 39.4945 9.096 39.3825 8.952C39.2065 8.744 39.0945 8.52 39.0465 8.28C39.0145 8.04 39.0305 7.816 39.0945 7.608C39.1745 7.384 39.2945 7.192 39.4545 7.032C39.6145 6.856 39.7985 6.744 40.0065 6.696C40.2945 6.616 40.7025 6.576 41.2305 6.576C41.7585 6.56 42.2545 6.56 42.7185 6.576C42.7025 6.416 42.6945 6.264 42.6945 6.12C42.6945 5.96 42.6865 5.808 42.6705 5.664C42.6545 5.472 42.6465 5.232 42.6465 4.944C42.6465 4.64 42.6625 4.344 42.6945 4.056C42.7425 3.752 42.8145 3.472 42.9105 3.216C43.0065 2.944 43.1425 2.736 43.3185 2.592C43.5585 2.4 43.7985 2.296 44.0385 2.28C44.2945 2.248 44.5265 2.28 44.7345 2.376C44.9585 2.472 45.1425 2.616 45.2865 2.808C45.4465 2.984 45.5585 3.184 45.6225 3.408C45.6705 3.6 45.7105 3.832 45.7425 4.104C45.7745 4.36 45.7905 4.632 45.7905 4.92C45.8065 5.208 45.8145 5.496 45.8145 5.784C45.8145 6.072 45.8145 6.336 45.8145 6.576H46.0545C46.2945 6.576 46.5745 6.568 46.8945 6.552C47.2145 6.536 47.5265 6.544 47.8305 6.576C48.1505 6.608 48.4385 6.688 48.6945 6.816C48.9505 6.928 49.1425 7.128 49.2705 7.416Z" fill="#763AD8"/>
<path d="M68.0079 13.5713C68.0079 15.003 67.4902 16.1355 66.4548 16.9687C65.4194 17.8018 64.0119 18.2184 62.2323 18.2184C60.4527 18.2184 58.9118 17.8989 57.6095 17.2599V14.1173C58.6853 14.5865 59.5953 14.9221 60.3395 15.1244C61.0837 15.3266 61.7996 15.4277 62.4871 15.4277C63.1747 15.4277 63.7126 15.2861 64.1009 15.003C64.4972 14.7118 64.6954 14.2872 64.6954 13.729C64.6954 13.4055 64.6064 13.1264 64.4285 12.8918C64.2505 12.6491 64.0038 12.4226 63.6883 12.2123C63.381 11.9939 62.7055 11.6421 61.662 11.1567C60.6267 10.6633 59.8703 10.2063 59.3931 9.78564C58.3253 8.8635 57.7915 7.70677 57.7915 6.31547C57.7915 4.92417 58.2687 3.82406 59.2232 3.01517C60.1777 2.20627 61.5003 1.80182 63.1909 1.80182C64.6226 1.80182 66.204 2.17796 67.9351 2.93023L66.843 5.56319C65.9937 5.21537 65.2859 4.9727 64.7197 4.83519C64.1535 4.69767 63.5791 4.62892 62.9967 4.62892C62.4224 4.62892 61.9613 4.77452 61.6135 5.06572C61.2738 5.35693 61.1039 5.74924 61.1039 6.24267C61.1039 6.8089 61.3911 7.28615 61.9654 7.67442C62.2485 7.86855 62.9644 8.2366 64.113 8.77856C65.5933 9.49039 66.6125 10.2063 67.1706 10.9262C67.7288 11.6461 68.0079 12.5278 68.0079 13.5713ZM77.716 9.14257C77.3196 8.54398 76.6806 8.24469 75.7989 8.24469C74.9172 8.24469 74.2782 8.54398 73.8818 9.14257C73.4854 9.73306 73.2873 10.6471 73.2873 11.8847C73.2873 13.1143 73.4895 14.0324 73.8939 14.639C74.2984 15.2457 74.9374 15.549 75.811 15.549C76.6846 15.549 77.3196 15.2457 77.716 14.639C78.1204 14.0324 78.3227 13.1143 78.3227 11.8847C78.3227 10.6471 78.1204 9.73306 77.716 9.14257ZM75.8353 5.56319C77.6068 5.53893 79.0385 6.1092 80.1305 7.27401C81.2226 8.43074 81.7524 9.9636 81.72 11.8726C81.72 13.8625 81.1942 15.4196 80.1427 16.544C79.0992 17.6603 77.6432 18.2184 75.7746 18.2184C74.0031 18.2346 72.5714 17.6603 71.4794 16.4954C70.3955 15.3306 69.8656 13.7897 69.8899 11.8726C69.8899 9.88271 70.4076 8.33367 71.443 7.22548C72.4865 6.11729 73.9506 5.56319 75.8353 5.56319ZM87.8062 1.01314V18H84.4816V1.01314H87.8062ZM102.501 18H99.9531L99.5041 16.4348H99.3221C98.9662 17.0091 98.4607 17.4499 97.8054 17.7573C97.1502 18.0647 96.4061 18.2184 95.5729 18.2184C94.1492 18.2184 93.0693 17.8382 92.3333 17.0779C91.6052 16.3094 91.2412 15.2012 91.2412 13.7533V5.79373H94.5658V12.9282C94.5658 13.8099 94.7235 14.4692 95.039 14.906C95.3545 15.3428 95.852 15.5612 96.5314 15.5612C97.4617 15.5612 98.133 15.2538 98.5456 14.639C98.9662 14.0162 99.1765 12.9808 99.1765 11.5329V5.79373H102.501V18ZM109.686 14.178C109.686 14.639 109.815 14.9869 110.074 15.2214C110.333 15.4479 110.725 15.5612 111.251 15.5612C111.777 15.5612 112.44 15.4358 113.241 15.185V17.6603C112.416 18.0324 111.368 18.2184 110.098 18.2184C108.836 18.2184 107.898 17.8868 107.283 17.2235C106.669 16.5602 106.361 15.545 106.361 14.178V8.29323H104.76V6.88574L106.592 5.76946L107.562 3.19717H109.686V5.79373H113.107V8.29323H109.686V14.178ZM119.025 5.79373V18H115.7V5.79373H119.025ZM117.375 4.27705C116.161 4.27705 115.555 3.73509 115.555 2.65116C115.555 1.55915 116.157 1.01314 117.363 1.01314C118.576 1.01314 119.183 1.55511 119.183 2.63903C119.183 3.16481 119.029 3.56926 118.722 3.85238C118.414 4.13549 117.965 4.27705 117.375 4.27705ZM129.607 9.14257C129.21 8.54398 128.571 8.24469 127.69 8.24469C126.808 8.24469 126.169 8.54398 125.772 9.14257C125.376 9.73306 125.178 10.6471 125.178 11.8847C125.178 13.1143 125.38 14.0324 125.785 14.639C126.189 15.2457 126.828 15.549 127.702 15.549C128.575 15.549 129.21 15.2457 129.607 14.639C130.011 14.0324 130.213 13.1143 130.213 11.8847C130.213 10.6471 130.011 9.73306 129.607 9.14257ZM127.726 5.56319C129.497 5.53893 130.929 6.1092 132.021 7.27401C133.113 8.43074 133.643 9.9636 133.611 11.8726C133.611 13.8625 133.085 15.4196 132.033 16.544C130.99 17.6603 129.534 18.2184 127.665 18.2184C125.894 18.2346 124.462 17.6603 123.37 16.4954C122.286 15.3306 121.756 13.7897 121.781 11.8726C121.781 9.88271 122.298 8.33367 123.334 7.22548C124.377 6.11729 125.841 5.56319 127.726 5.56319ZM147.644 10.0404V18H144.308V10.8655C144.308 9.97573 144.15 9.31648 143.834 8.88776C143.519 8.45096 143.021 8.23256 142.342 8.23256C141.42 8.23256 140.748 8.54398 140.328 9.16683C139.907 9.7816 139.697 10.8129 139.697 12.2609V18H136.372V5.79373H138.92L139.369 7.35895H139.551C139.915 6.77654 140.421 6.33165 141.068 6.02427C141.723 5.71689 142.467 5.56319 143.3 5.56319C144.724 5.56319 145.804 5.94742 146.54 6.71587C147.276 7.47624 147.644 8.58443 147.644 10.0404Z" fill="black"/>
</svg>
