<svg width="640" height="498" viewBox="0 0 640 498" fill="none" xmlns="http://www.w3.org/2000/svg">
<g clip-path="url(#clip0_2410_71)">
<path d="M132.864 327.567C103.928 299.087 91.7073 269.375 98.4511 243.905C107.105 211.22 145.553 188.621 203.935 181.903L204.15 183.778C146.581 190.402 108.72 212.494 100.276 244.388C93.7124 269.175 105.756 298.238 134.188 326.223L132.864 327.567Z" fill="#E7D8F5"/>
<path d="M412.042 428.662C375.929 428.662 336.686 423.297 297.706 412.979C249.502 400.22 205.304 380.961 169.891 357.284L170.939 355.716C206.182 379.278 250.184 398.449 298.189 411.155C341.569 422.638 385.276 427.958 424.566 426.554L424.634 428.439C420.485 428.589 416.288 428.663 412.042 428.662Z" fill="#E7D8F5"/>
<path d="M494.891 416.797L494.286 415.009C526.585 404.091 546.786 386.503 552.706 364.144C560.232 335.721 543.882 302.738 506.669 271.271C469.265 239.644 415.329 213.401 354.793 197.378L355.276 195.554C416.077 211.647 470.275 238.026 507.887 269.83C545.688 301.794 562.254 335.461 554.531 364.627C548.441 387.627 527.817 405.666 494.891 416.797Z" fill="#E7D8F5"/>
<path d="M198.316 429.451C127.356 397.985 72.6753 357.161 44.3485 314.499L45.9205 313.455C74.0515 355.822 128.445 396.404 199.081 427.726L198.316 429.451Z" fill="#E7D8F5"/>
<path d="M447.807 483.964C440.488 483.964 433.044 483.801 425.475 483.474L425.556 481.589C482.043 484.034 531.882 477.275 569.695 462.04L570.401 463.79C537.416 477.079 495.373 483.964 447.807 483.964Z" fill="#E7D8F5"/>
<path d="M406.635 183.595C394.907 179.777 382.843 176.222 370.779 173.029C301.356 154.653 233.113 148.129 173.424 154.165L173.234 152.288C233.145 146.232 301.622 152.772 371.262 171.205C383.36 174.407 395.458 177.972 407.219 181.801L406.635 183.595Z" fill="#E7D8F5"/>
<path d="M88.5153 330.397C59.5799 301.917 47.3589 272.205 54.1026 246.735C62.7571 214.05 101.204 191.452 159.586 184.733L159.802 186.608C102.233 193.233 64.372 215.324 55.9272 247.218C49.364 272.005 61.4076 301.068 89.8395 329.053L88.5153 330.397Z" fill="#E7D8F5"/>
<path d="M367.694 431.493C331.581 431.493 292.337 426.127 253.357 415.809C205.153 403.05 160.956 383.791 125.542 360.114L126.591 358.546C161.834 382.108 205.836 401.279 253.84 413.985C297.221 425.468 340.927 430.789 380.218 429.385L380.286 431.27C376.136 431.419 371.939 431.493 367.694 431.493Z" fill="#E7D8F5"/>
<path d="M450.542 419.627L449.938 417.84C482.236 406.921 502.437 389.333 508.358 366.975C515.884 338.552 499.534 305.569 462.32 274.101C424.917 242.474 370.981 216.231 310.445 200.208L310.928 198.384C371.728 214.478 425.927 240.856 463.539 272.661C501.34 304.625 517.905 338.291 510.182 367.457C504.092 390.457 483.469 408.497 450.542 419.627Z" fill="#E7D8F5"/>
<path d="M153.968 432.281C83.0072 400.815 28.3268 359.991 0 317.329L1.57204 316.285C29.7031 358.652 84.0964 399.234 154.733 430.557L153.968 432.281Z" fill="#E7D8F5"/>
<path d="M403.459 486.794C396.14 486.794 388.695 486.631 381.126 486.304L381.207 484.419C437.694 486.864 487.534 480.106 525.347 464.87L526.053 466.62C493.067 479.909 451.024 486.794 403.459 486.794Z" fill="#E7D8F5"/>
<path d="M362.287 186.425C350.558 182.607 338.494 179.053 326.431 175.859C257.008 157.484 188.764 150.959 129.075 156.995L128.885 155.118C188.797 149.062 257.274 155.602 326.913 174.035C339.011 177.238 351.109 180.803 362.871 184.632L362.287 186.425Z" fill="#E7D8F5"/>
<path d="M32.1658 279.859C45.7272 264.657 67.36 255.391 86.9642 260.938C68.8785 273.734 55.9028 292.514 50.333 313.956C48.2149 322.232 46.7211 331.659 39.8365 336.719C35.5529 339.868 29.8769 340.62 24.6089 339.903C19.3406 339.186 14.3593 337.137 9.44525 335.108L8.12292 335.222C11.9247 315.209 18.6043 295.062 32.1658 279.859Z" fill="#F2F2F2"/>
<path d="M86.9043 261.361C70.5139 265.329 55.7906 274.359 44.8257 287.17C42.4162 289.886 40.45 292.964 38.9994 296.292C37.6911 299.58 37.2872 303.158 37.8296 306.655C38.2699 309.925 39.0991 313.219 38.7366 316.539C38.5258 318.236 37.9586 319.869 37.0723 321.332C36.186 322.794 35.0005 324.053 33.5935 325.025C30.151 327.538 26.0104 328.665 21.923 329.626C17.3847 330.693 12.654 331.73 8.95456 334.745C8.50632 335.111 7.9655 334.394 8.41306 334.029C14.8494 328.783 23.7945 329.456 30.9158 325.646C34.2387 323.867 37.0457 321.077 37.7282 317.249C38.325 313.901 37.4729 310.503 36.9985 307.195C36.4193 303.792 36.6823 300.299 37.7647 297.021C39.0411 293.63 40.8855 290.481 43.2187 287.708C48.372 281.382 54.488 275.906 61.3426 271.48C69.1378 266.385 77.7472 262.661 86.7983 260.469C87.3586 260.334 87.4609 261.226 86.9043 261.361Z" fill="white"/>
<path d="M48.1135 282.837C46.2135 280.706 45.1331 277.969 45.0652 275.115C44.9972 272.261 45.9462 269.475 47.7426 267.256C48.1076 266.809 48.8207 267.355 48.4552 267.803C46.7785 269.866 45.8948 272.461 45.9635 275.119C46.0322 277.776 47.0488 280.322 48.8298 282.296C49.2163 282.725 48.4978 283.264 48.1135 282.837Z" fill="white"/>
<path d="M37.3879 305.026C43.212 305.413 48.9679 303.59 53.508 299.922C53.9575 299.559 54.4984 300.275 54.0495 300.639C49.3179 304.447 43.3241 306.331 37.2643 305.915C36.6867 305.875 36.8135 304.986 37.3879 305.026Z" fill="white"/>
<path d="M69.3396 267.559C69.9029 268.536 70.7003 269.359 71.6601 269.952C72.6199 270.546 73.7121 270.892 74.8386 270.959C75.4164 270.992 75.289 271.881 74.715 271.848C73.4707 271.768 72.2649 271.385 71.203 270.731C70.1411 270.078 69.2554 269.175 68.6233 268.1C68.5552 268.004 68.5264 267.885 68.5426 267.768C68.5589 267.651 68.619 267.545 68.7107 267.471C68.8059 267.4 68.9254 267.369 69.0432 267.386C69.1609 267.402 69.2674 267.464 69.3396 267.559Z" fill="white"/>
<path d="M114.793 324.047C114.431 324.037 114.07 324.027 113.704 324.023C108.845 323.912 103.985 324.195 99.1721 324.871C98.7992 324.917 98.4219 324.97 98.0511 325.027C86.4729 326.778 75.3205 330.663 65.1608 336.485C61.1201 338.805 57.2619 341.429 53.6195 344.335C48.5894 348.348 43.4548 353.099 37.5659 355.156C36.9539 355.377 36.3288 355.561 35.6942 355.705L8.36528 336.826C8.32471 336.752 8.27954 336.684 8.23866 336.61L7.11304 335.906C7.29042 335.743 7.4779 335.578 7.65529 335.415C7.7578 335.32 7.86642 335.229 7.96889 335.134C8.03916 335.072 8.10976 335.01 8.16962 334.95C8.19293 334.93 8.21655 334.909 8.23557 334.895C8.29544 334.835 8.35741 334.785 8.41296 334.732C9.45838 333.805 10.5121 332.885 11.5742 331.97C11.5785 331.963 11.5785 331.963 11.5889 331.961C19.6993 325.011 28.4613 318.676 37.9064 313.872C38.1906 313.728 38.4789 313.577 38.7756 313.441C43.045 311.299 47.4824 309.51 52.0433 308.091C54.5433 307.322 57.0805 306.681 59.6454 306.168C66.2752 304.857 73.0699 304.597 79.7806 305.397C93.158 306.993 105.876 312.85 114.167 323.247C114.379 323.513 114.585 323.775 114.793 324.047Z" fill="#F2F2F2"/>
<path d="M114.492 324.352C99.0154 317.653 81.8218 316.001 65.3528 319.629C61.7935 320.347 58.3697 321.621 55.2074 323.406C52.1831 325.243 49.706 327.857 48.0337 330.975C46.4159 333.851 45.0943 336.98 42.8054 339.413C41.6153 340.641 40.1791 341.604 38.5908 342.238C37.0025 342.872 35.2981 343.163 33.5894 343.092C29.3272 343.027 25.3427 341.434 21.5003 339.741C17.2342 337.861 12.8327 335.841 8.06304 336.022C7.48513 336.044 7.48492 335.146 8.06196 335.124C16.3603 334.81 23.0968 340.732 31.0775 341.976C34.8014 342.557 38.7228 342.019 41.5732 339.373C44.0658 337.059 45.4315 333.833 47.0443 330.906C48.6311 327.841 50.9447 325.21 53.7828 323.244C56.8441 321.305 60.2131 319.9 63.7456 319.091C71.6693 317.143 79.8501 316.452 87.9884 317.044C97.2804 317.669 106.397 319.878 114.944 323.576C115.473 323.805 115.017 324.579 114.492 324.352Z" fill="white"/>
<path d="M70.5869 318.149C70.3532 315.303 71.1387 312.468 72.8031 310.148C74.4675 307.828 76.9024 306.175 79.673 305.485C80.2341 305.347 80.4746 306.213 79.9128 306.35C77.3316 306.989 75.0636 308.528 73.5182 310.692C71.9727 312.855 71.2515 315.499 71.4849 318.147C71.5349 318.723 70.6366 318.721 70.5869 318.149Z" fill="white"/>
<path d="M48.6617 329.409C53.0791 333.223 58.7722 335.233 64.6058 335.038C65.1838 335.018 65.1842 335.915 64.6069 335.935C58.5359 336.128 52.6156 334.024 48.0275 330.044C47.5905 329.665 48.2271 329.031 48.6617 329.409Z" fill="white"/>
<path d="M96.735 318.727C96.596 319.847 96.7373 320.983 97.1463 322.035C97.5552 323.087 98.219 324.02 99.0781 324.752C99.5197 325.126 98.8826 325.759 98.4439 325.388C97.4985 324.575 96.7667 323.543 96.3123 322.382C95.8579 321.221 95.6947 319.967 95.837 318.728C95.8407 318.61 95.889 318.498 95.9723 318.415C96.0556 318.331 96.1676 318.283 96.2855 318.279C96.4044 318.279 96.5183 318.326 96.6024 318.41C96.6866 318.494 96.7343 318.608 96.735 318.727Z" fill="white"/>
<path d="M563.551 404.482C555.889 385.606 538.629 369.61 518.301 368.246C531.033 386.376 536.941 408.424 534.979 430.49C534.192 438.997 532.43 448.377 537.213 455.456C540.189 459.861 545.282 462.477 550.484 463.572C555.687 464.667 561.067 464.412 566.378 464.151L567.585 464.704C570.731 444.577 571.213 423.357 563.551 404.482Z" fill="#F2F2F2"/>
<path d="M518.215 368.665C532.318 377.91 543.15 391.363 549.17 407.113C550.527 410.48 551.343 414.041 551.591 417.663C551.718 421.199 550.896 424.704 549.209 427.815C547.695 430.747 545.807 433.571 545.032 436.82C544.66 438.489 544.646 440.218 544.989 441.893C545.332 443.568 546.025 445.152 547.024 446.54C549.421 450.064 552.942 452.517 556.469 454.796C560.384 457.326 564.491 459.892 566.962 463.975C567.261 464.47 568.011 463.976 567.712 463.482C563.414 456.378 554.763 454.007 549.337 448.025C546.805 445.233 545.099 441.662 545.744 437.827C546.307 434.473 548.252 431.559 549.81 428.604C551.5 425.593 552.426 422.215 552.509 418.764C552.447 415.141 551.768 411.555 550.503 408.16C547.776 400.47 543.856 393.258 538.888 386.786C533.259 379.368 526.403 372.967 518.615 367.861C518.133 367.545 517.736 368.351 518.215 368.665Z" fill="white"/>
<path d="M547.53 401.927C550.036 400.559 551.974 398.344 552.997 395.679C554.02 393.013 554.063 390.071 553.117 387.378C552.924 386.833 552.069 387.108 552.262 387.653C553.148 390.16 553.108 392.9 552.15 395.38C551.192 397.86 549.378 399.916 547.038 401.177C546.529 401.451 547.025 402.2 547.53 401.927Z" fill="white"/>
<path d="M550.173 426.429C544.557 424.837 539.749 421.186 536.706 416.206C536.405 415.712 535.655 416.205 535.955 416.698C539.131 421.875 544.143 425.664 549.99 427.309C550.548 427.465 550.727 426.585 550.173 426.429Z" fill="white"/>
<path d="M532.675 380.405C531.816 381.136 530.788 381.643 529.685 381.879C528.581 382.116 527.436 382.075 526.353 381.759C525.797 381.596 525.619 382.476 526.17 382.638C527.369 382.981 528.633 383.025 529.853 382.767C531.073 382.508 532.211 381.955 533.167 381.155C533.264 381.088 533.331 380.986 533.355 380.87C533.379 380.755 533.358 380.634 533.296 380.534C533.231 380.435 533.129 380.366 533.012 380.341C532.896 380.317 532.774 380.34 532.675 380.405Z" fill="white"/>
<path d="M470.877 418.333C471.22 418.445 471.564 418.557 471.91 418.676C476.524 420.204 481.006 422.104 485.312 424.358C485.647 424.527 485.985 424.703 486.315 424.881C496.631 430.421 505.829 437.828 513.441 446.725C516.466 450.269 519.218 454.037 521.671 457.997C525.06 463.467 528.299 469.667 533.154 473.583C533.656 473.998 534.183 474.38 534.732 474.729L566.817 466.133C566.88 466.077 566.946 466.028 567.009 465.972L568.306 465.687C568.194 465.474 568.073 465.255 567.96 465.042C567.896 464.918 567.824 464.796 567.759 464.672C567.714 464.59 567.668 464.508 567.632 464.432C567.617 464.404 567.602 464.377 567.589 464.357C567.552 464.281 567.511 464.213 567.476 464.144C566.803 462.92 566.12 461.699 565.427 460.48C565.426 460.473 565.426 460.473 565.416 460.468C560.114 451.196 553.992 442.285 546.711 434.587C546.492 434.355 546.271 434.117 546.037 433.889C542.736 430.437 539.158 427.261 535.34 424.392C533.243 422.828 531.07 421.37 528.826 420.026C523.023 416.563 516.711 414.035 510.122 412.533C496.986 409.541 483.039 410.784 471.735 417.789C471.446 417.969 471.164 418.146 470.877 418.333Z" fill="#F2F2F2"/>
<path d="M471.058 418.721C487.886 417.613 504.635 421.834 518.926 430.786C522.037 432.658 524.833 435.009 527.212 437.752C529.442 440.499 530.897 443.793 531.423 447.292C531.98 450.544 532.173 453.936 533.511 456.996C534.219 458.553 535.248 459.942 536.531 461.073C537.814 462.204 539.321 463.051 540.954 463.558C544.99 464.929 549.278 464.768 553.466 464.464C558.116 464.127 562.941 463.704 567.372 465.477C567.909 465.692 568.211 464.846 567.675 464.632C559.965 461.547 551.63 464.861 543.695 463.351C539.993 462.646 536.48 460.822 534.685 457.372C533.115 454.355 532.914 450.858 532.378 447.56C531.914 444.139 530.62 440.884 528.608 438.078C526.376 435.223 523.675 432.769 520.62 430.819C513.813 426.321 506.34 422.922 498.476 420.745C489.515 418.21 480.186 417.228 470.893 417.838C470.318 417.876 470.487 418.759 471.058 418.721Z" fill="white"/>
<path d="M514.494 427.633C515.67 425.031 515.884 422.097 515.096 419.353C514.308 416.608 512.57 414.234 510.193 412.652C509.711 412.334 509.194 413.068 509.676 413.387C511.893 414.855 513.511 417.068 514.24 419.624C514.968 422.181 514.758 424.914 513.648 427.33C513.408 427.855 514.255 428.155 514.494 427.633Z" fill="white"/>
<path d="M531.358 445.605C525.916 447.714 519.878 447.694 514.45 445.549C513.912 445.336 513.61 446.181 514.147 446.394C519.8 448.615 526.083 448.624 531.742 446.417C532.281 446.206 531.895 445.396 531.358 445.605Z" fill="white"/>
<path d="M489.672 419.39C489.427 420.492 488.912 421.515 488.173 422.368C487.434 423.221 486.495 423.877 485.44 424.278C484.899 424.481 485.286 425.292 485.824 425.089C486.988 424.642 488.024 423.915 488.842 422.975C489.66 422.034 490.236 420.907 490.518 419.693C490.554 419.581 490.546 419.459 490.496 419.353C490.445 419.246 490.356 419.162 490.246 419.119C490.134 419.08 490.011 419.086 489.904 419.137C489.796 419.188 489.713 419.279 489.672 419.39Z" fill="white"/>
<path d="M414.901 468.755C419.07 468.755 422.45 465.376 422.45 461.207C422.45 457.039 419.07 453.66 414.901 453.66C410.732 453.66 407.352 457.039 407.352 461.207C407.352 465.376 410.732 468.755 414.901 468.755Z" fill="#E7D8F5"/>
<path d="M441.64 340.206C445.809 340.206 449.188 336.827 449.188 332.658C449.188 328.49 445.809 325.111 441.64 325.111C437.471 325.111 434.091 328.49 434.091 332.658C434.091 336.827 437.471 340.206 441.64 340.206Z" fill="#E7D8F5"/>
<path d="M301.177 130.856C305.346 130.856 308.726 127.477 308.726 123.308C308.726 119.14 305.346 115.761 301.177 115.761C297.008 115.761 293.628 119.14 293.628 123.308C293.628 127.477 297.008 130.856 301.177 130.856Z" fill="#E7D8F5"/>
<path d="M142.991 412.825C142.991 414.746 143.054 416.668 143.188 418.573C143.331 420.85 143.576 423.111 143.908 425.357C145.024 432.917 147.157 440.292 150.25 447.281C150.408 447.629 150.566 447.977 150.724 448.325L150.962 448.846C151.041 449.02 151.128 449.194 151.207 449.36C151.317 449.59 151.42 449.811 151.531 450.032C151.665 450.309 151.8 450.586 151.942 450.863C151.958 450.894 151.974 450.934 151.997 450.973C152.116 451.21 152.227 451.44 152.353 451.677C152.377 451.729 152.403 451.779 152.432 451.827C152.567 452.096 152.709 452.373 152.852 452.641C153.01 452.926 153.16 453.219 153.318 453.503C153.698 454.207 154.093 454.903 154.496 455.598C154.615 455.804 154.734 456.01 154.86 456.215C154.971 456.405 155.081 456.595 155.2 456.784C155.279 456.911 155.358 457.045 155.437 457.172C155.564 457.385 155.69 457.591 155.825 457.804C156.117 458.271 156.418 458.737 156.71 459.204H156.718C156.853 459.417 156.995 459.631 157.137 459.836V459.844C157.557 460.477 157.992 461.109 158.426 461.734L158.429 461.734L158.432 461.736L158.434 461.739L158.434 461.742C158.782 462.248 159.146 462.738 159.502 463.228V463.236C159.739 463.544 159.968 463.86 160.206 464.169C160.395 464.422 160.593 464.683 160.791 464.936C160.83 464.991 160.878 465.038 160.917 465.094V465.102C160.973 465.173 161.028 465.236 161.083 465.307C161.922 466.383 162.786 467.434 163.677 468.462L163.819 468.628C163.867 468.683 163.922 468.739 163.97 468.802C164.049 468.889 164.12 468.976 164.199 469.063C164.27 469.15 164.349 469.237 164.428 469.324C169.073 474.554 174.339 479.198 180.109 483.152C180.876 483.682 181.659 484.196 182.442 484.694C182.64 484.82 182.837 484.947 183.035 485.065C183.09 485.105 183.154 485.144 183.209 485.184C183.32 485.247 183.423 485.31 183.533 485.382C183.636 485.445 183.739 485.508 183.85 485.571C184.269 485.832 184.696 486.085 185.123 486.338C185.225 486.401 185.336 486.465 185.447 486.528C185.55 486.583 185.66 486.647 185.771 486.71C185.771 486.718 185.771 486.718 185.779 486.718H185.787V486.726H185.795C186.325 487.034 186.862 487.334 187.408 487.627C187.701 487.785 188.001 487.951 188.302 488.101C188.982 488.473 189.67 488.829 190.358 489.169C190.603 489.287 190.856 489.406 191.101 489.532C191.306 489.627 191.512 489.73 191.718 489.825C191.781 489.856 191.836 489.88 191.892 489.912C192.066 489.991 192.232 490.07 192.406 490.149C192.595 490.236 192.785 490.323 192.967 490.41C193.181 490.505 193.386 490.6 193.6 490.687C194.39 491.042 195.189 491.382 195.988 491.707C198.85 492.88 201.775 493.893 204.749 494.743C204.884 494.782 205.026 494.822 205.169 494.861C206.442 495.217 207.723 495.541 209.012 495.834C211.265 496.355 213.54 496.782 215.836 497.115H215.852C216.129 497.154 216.398 497.194 216.674 497.233C216.698 497.233 216.722 497.241 216.753 497.241C216.753 497.249 216.753 497.249 216.761 497.241C217.062 497.281 217.37 497.32 217.671 497.36C217.691 497.366 217.713 497.368 217.734 497.367C218.019 497.407 218.311 497.439 218.596 497.47C218.904 497.502 219.213 497.534 219.521 497.565C219.758 497.589 219.996 497.613 220.233 497.636C220.253 497.643 220.275 497.646 220.296 497.644C220.51 497.66 220.723 497.684 220.937 497.7H220.968C221.15 497.715 221.34 497.731 221.522 497.747C223.728 497.921 225.942 498 228.188 498C230.615 498 233.027 497.905 235.408 497.7H235.431C235.945 497.652 236.451 497.605 236.957 497.557C237.092 497.541 237.218 497.534 237.353 497.518C237.377 497.518 237.408 497.51 237.432 497.51C237.471 497.502 237.511 497.502 237.558 497.494C237.58 497.495 237.601 497.492 237.622 497.486C237.796 497.47 237.97 497.447 238.151 497.431L238.745 497.36C238.942 497.336 239.14 497.304 239.338 497.281C239.385 497.273 239.425 497.273 239.472 497.265C239.614 497.249 239.757 497.225 239.899 497.202C239.97 497.194 240.041 497.186 240.105 497.178C240.247 497.154 240.381 497.138 240.524 497.115H240.532C244.871 496.49 249.154 495.525 253.342 494.229C253.564 494.158 253.785 494.094 254.006 494.023C254.014 494.023 254.022 494.015 254.03 494.015C254.093 493.992 254.164 493.976 254.228 493.952C254.821 493.762 255.406 493.565 255.991 493.359C256.798 493.09 257.596 492.798 258.395 492.497C258.609 492.41 258.822 492.331 259.036 492.244C259.471 492.078 259.898 491.904 260.325 491.73C261.052 491.438 261.78 491.129 262.499 490.813C263.171 490.513 263.836 490.212 264.5 489.896C264.516 489.888 264.539 489.888 264.555 489.872C264.705 489.801 264.856 489.73 264.998 489.659H265.006C268.648 487.911 272.16 485.906 275.515 483.658C276.591 482.939 277.65 482.195 278.694 481.428C279.532 480.804 280.355 480.171 281.177 479.523C285.234 476.296 288.99 472.708 292.398 468.802V468.794C292.643 468.525 292.873 468.249 293.11 467.972C293.149 467.932 293.181 467.893 293.213 467.861C293.363 467.679 293.505 467.505 293.655 467.331V467.323C293.853 467.094 294.051 466.857 294.241 466.62C294.288 466.565 294.327 466.517 294.367 466.47V466.462C294.525 466.272 294.675 466.082 294.834 465.885C294.913 465.79 294.984 465.695 295.063 465.6V465.592C295.529 465.007 295.98 464.422 296.431 463.821C296.55 463.663 296.668 463.497 296.795 463.331C297.364 462.564 297.918 461.781 298.455 460.998V460.991C298.661 460.698 298.859 460.398 299.064 460.105C299.262 459.805 299.46 459.504 299.657 459.204C299.855 458.887 300.061 458.579 300.258 458.263L300.282 458.215C300.48 457.915 300.677 457.599 300.867 457.29C301.017 457.037 301.168 456.792 301.318 456.547C301.413 456.381 301.516 456.215 301.61 456.041C301.648 455.988 301.682 455.932 301.713 455.875C301.935 455.488 302.156 455.1 302.377 454.713C302.638 454.262 302.892 453.804 303.145 453.345C303.239 453.155 303.342 452.966 303.445 452.776C303.485 452.713 303.516 452.649 303.548 452.586C303.666 452.365 303.785 452.136 303.896 451.906C304.014 451.685 304.133 451.456 304.252 451.226C304.362 451.005 304.481 450.776 304.592 450.546C304.679 450.372 304.758 450.198 304.845 450.025C304.851 450.01 304.859 449.997 304.868 449.985C304.908 449.898 304.948 449.819 304.979 449.74C304.989 449.728 304.997 449.715 305.003 449.7C305.09 449.526 305.169 449.345 305.256 449.171C305.367 448.941 305.469 448.704 305.58 448.475C305.651 448.317 305.73 448.151 305.802 447.985C305.904 447.755 306.015 447.526 306.11 447.289C306.221 447.052 306.323 446.815 306.426 446.569C306.456 446.51 306.482 446.45 306.505 446.388C306.561 446.277 306.6 446.166 306.648 446.056C306.774 445.763 306.901 445.463 307.019 445.17C307.162 444.838 307.296 444.498 307.423 444.166C307.549 443.858 307.668 443.541 307.786 443.225L307.834 443.114C309.676 438.262 311.074 433.253 312.009 428.148V428.14C312.536 425.225 312.914 422.285 313.14 419.332C313.148 419.166 313.164 419.008 313.171 418.85C313.314 416.85 313.377 414.841 313.377 412.825C313.377 411.932 313.361 411.046 313.337 410.161C312.786 391.641 306.181 373.813 294.533 359.402C294.28 359.086 294.027 358.77 293.766 358.454C293.505 358.137 293.236 357.829 292.975 357.521C284.307 347.371 273.374 339.399 261.059 334.249C248.743 329.098 235.39 326.913 222.075 327.869C208.76 328.826 195.856 332.897 184.403 339.754C172.951 346.612 163.27 356.064 156.141 367.348C155.754 367.965 155.366 368.589 154.995 369.214C154.615 369.847 154.251 370.479 153.887 371.119C146.724 383.851 142.97 398.217 142.991 412.825Z" fill="#F2F2F2"/>
<path d="M224.802 357.112C238.81 360.706 253.166 362.778 267.62 363.291C269.806 363.41 271.997 363.395 274.18 363.247C278.98 362.843 283.09 361.335 287.669 360.511C289.87 360.116 292.321 359.827 294.537 359.4C294.025 358.765 293.504 358.137 292.973 357.518C288.196 357.921 283.343 359.243 278.508 359.857C270.288 360.902 261.079 359.735 254.848 356.859C251.825 355.464 249.509 353.722 246.497 352.32C246.087 352.11 245.643 351.974 245.186 351.919C244.317 351.893 243.459 352.115 242.713 352.56C237.659 355.111 230.321 357.184 223.51 356.044C223.002 356.441 223.967 356.893 224.802 357.112Z" fill="white"/>
<path d="M194.662 366.09C194.6 366.078 194.537 366.07 194.475 366.059C194.737 365.897 194.983 365.711 195.211 365.504L194.662 366.09Z" fill="white"/>
<path d="M153.889 371.123C156.734 371.35 159.593 371.519 162.468 371.63C164.653 371.748 166.844 371.734 169.028 371.586C173.827 371.18 177.938 369.674 182.516 368.85C186.712 368.096 191.811 367.733 194.475 366.059C187.59 364.867 180.456 367.293 173.356 368.196C167.613 368.902 161.791 368.614 156.145 367.346C155.359 368.582 154.607 369.841 153.889 371.123Z" fill="white"/>
<path d="M188.302 488.101C188.982 488.473 189.67 488.829 190.358 489.169C190.603 489.287 190.856 489.406 191.101 489.532C191.306 489.627 191.512 489.73 191.718 489.825C191.781 489.857 191.836 489.88 191.892 489.912C192.066 489.991 192.232 490.07 192.406 490.149C192.595 490.236 192.785 490.323 192.967 490.41C193.181 490.505 193.386 490.6 193.6 490.687C194.39 491.042 195.189 491.382 195.988 491.707C198.85 492.88 201.775 493.893 204.749 494.743C204.884 494.782 205.026 494.822 205.169 494.861C206.442 495.217 207.723 495.541 209.012 495.834C211.265 496.356 213.54 496.783 215.836 497.115H215.852C216.129 497.154 216.397 497.194 216.674 497.233C216.698 497.233 216.722 497.241 216.753 497.241C216.753 497.249 216.753 497.249 216.761 497.241C217.062 497.281 217.37 497.32 217.671 497.36C217.691 497.366 217.712 497.368 217.734 497.368C218.019 497.407 218.311 497.439 218.596 497.47C218.904 497.502 219.213 497.534 219.521 497.565C219.758 497.589 219.995 497.613 220.233 497.636C220.253 497.643 220.275 497.646 220.296 497.644C220.509 497.66 220.723 497.684 220.936 497.7H220.968C221.15 497.715 221.34 497.731 221.522 497.747C223.728 497.921 225.942 498 228.188 498C230.615 498 233.027 497.905 235.407 497.7H235.431C235.945 497.652 236.451 497.605 236.957 497.557C237.092 497.541 237.218 497.534 237.353 497.518C237.376 497.518 237.408 497.51 237.432 497.51C237.471 497.502 237.511 497.502 237.558 497.494C237.58 497.495 237.601 497.492 237.622 497.486C237.796 497.47 237.97 497.447 238.151 497.431L238.745 497.36C238.942 497.336 239.14 497.304 239.338 497.281C239.385 497.273 239.425 497.273 239.472 497.265C239.614 497.249 239.757 497.225 239.899 497.202C239.97 497.194 240.041 497.186 240.105 497.178C240.247 497.154 240.381 497.138 240.524 497.115H240.532C244.871 496.49 249.154 495.525 253.342 494.229C253.563 494.158 253.785 494.094 254.006 494.023C252.985 489.262 250.883 484.8 247.863 480.98C244.842 477.161 240.984 474.087 236.586 471.996C237.674 470.96 238.426 469.622 238.745 468.154C238.95 467.208 238.966 466.23 238.792 465.278C238.619 464.325 238.258 463.416 237.732 462.603C236.706 461.028 235.096 459.925 233.257 459.536L221.537 457.085C219.651 456.717 217.695 457.109 216.096 458.175C214.497 459.241 213.383 460.895 212.997 462.777C212.878 463.355 212.825 463.943 212.839 464.533C201.555 472.044 193.434 479.831 188.302 488.101Z" fill="#763AD8"/>
<path d="M222.905 452.457C236.389 452.457 247.32 441.528 247.32 428.046C247.32 414.564 236.389 403.634 222.905 403.634C209.42 403.634 198.489 414.564 198.489 428.046C198.489 441.528 209.42 452.457 222.905 452.457Z" fill="#FFB8B8"/>
<path d="M207.686 449.092C205.083 447.314 202.424 443.897 200.649 441.336C198.297 437.97 196.678 434.147 195.898 430.115C195.119 426.083 195.195 421.933 196.122 417.932C196.418 416.333 197.144 414.844 198.224 413.627C199.373 412.489 201.252 411.95 202.655 412.754C202.272 411.729 202.103 410.636 202.159 409.543C202.215 408.449 202.495 407.379 202.981 406.398C203.967 404.439 205.396 402.737 207.155 401.427C210.519 398.837 214.522 397.206 218.738 396.707C222.954 396.208 227.227 396.859 231.102 398.592C232.628 399.299 230.123 393.842 231.719 394.368C233.305 394.982 235.068 394.951 236.631 394.282C238.132 393.526 243.109 398.015 242.533 396.437C243.672 396.954 244.662 397.751 245.41 398.754C246.159 399.756 246.641 400.932 246.812 402.171C246.984 403.411 246.839 404.673 246.391 405.841C245.943 407.009 245.206 408.045 244.25 408.852C242.99 409.916 241.417 410.528 240.037 411.431C237.62 413.131 235.909 415.658 235.227 418.533C234.545 421.409 234.94 424.434 236.337 427.038C234.886 426.106 233.293 425.414 231.621 424.989C230.782 424.784 229.906 424.783 229.066 424.985C228.227 425.187 227.447 425.586 226.793 426.15C226.247 426.775 225.834 427.506 225.58 428.297C225.326 429.087 225.236 429.922 225.317 430.748C225.371 432.405 225.766 434.037 225.81 435.694C225.94 440.555 228.544 449.799 224.774 452.383C221.798 454.422 211.241 451.52 207.686 449.092Z" fill="#2F2E41"/>
<path d="M639.199 58.4904H0.801458C0.587309 58.4857 0.383533 58.3973 0.233759 58.2442C0.0839845 58.091 0.00012207 57.8854 0.00012207 57.6712C0.00012207 57.4571 0.0839845 57.2514 0.233759 57.0983C0.383533 56.9452 0.587309 56.8568 0.801458 56.8521H639.199C639.413 56.8568 639.616 56.9452 639.766 57.0983C639.916 57.2514 640 57.4571 640 57.6712C640 57.8854 639.916 58.091 639.766 58.2442C639.616 58.3973 639.413 58.4857 639.199 58.4904Z" fill="#B3B3B3"/>
<path d="M18.8406 47.0219C23.7095 47.0219 27.6566 42.9876 27.6566 38.011C27.6566 33.0343 23.7095 29 18.8406 29C13.9716 29 10.0245 33.0343 10.0245 38.011C10.0245 42.9876 13.9716 47.0219 18.8406 47.0219Z" fill="#763AD8"/>
<path d="M49.2959 47.0219C54.1648 47.0219 58.1119 42.9876 58.1119 38.011C58.1119 33.0343 54.1648 29 49.2959 29C44.4269 29 40.4799 33.0343 40.4799 38.011C40.4799 42.9876 44.4269 47.0219 49.2959 47.0219Z" fill="#763AD8"/>
<path d="M79.7512 47.0219C84.6202 47.0219 88.5672 42.9876 88.5672 38.011C88.5672 33.0343 84.6202 29 79.7512 29C74.8822 29 70.9352 33.0343 70.9352 38.011C70.9352 42.9876 74.8822 47.0219 79.7512 47.0219Z" fill="#763AD8"/>
<path d="M620.951 34.5117H599.312C598.884 34.5022 598.476 34.3255 598.176 34.0193C597.877 33.713 597.709 33.3017 597.709 32.8733C597.709 32.445 597.877 32.0337 598.176 31.7274C598.476 31.4212 598.884 31.2444 599.312 31.235H620.951C621.379 31.2444 621.787 31.4212 622.087 31.7274C622.386 32.0337 622.554 32.445 622.554 32.8733C622.554 33.3017 622.386 33.713 622.087 34.0193C621.787 34.3255 621.379 34.5022 620.951 34.5117Z" fill="#763AD8"/>
<path d="M620.951 40.6556H599.312C598.884 40.6462 598.476 40.4694 598.176 40.1632C597.877 39.857 597.709 39.4456 597.709 39.0172C597.709 38.5888 597.877 38.1775 598.176 37.8712C598.476 37.565 598.884 37.3883 599.312 37.3788H620.951C621.38 37.3883 621.787 37.565 622.087 37.8712C622.386 38.1775 622.554 38.5888 622.554 39.0172C622.554 39.4456 622.386 39.857 622.087 40.1632C621.787 40.4694 621.38 40.6462 620.951 40.6556Z" fill="#763AD8"/>
<path d="M620.951 46.7994H599.312C598.884 46.79 598.476 46.6133 598.176 46.307C597.877 46.0008 597.709 45.5894 597.709 45.1611C597.709 44.7327 597.877 44.3213 598.176 44.0151C598.476 43.7089 598.884 43.5321 599.312 43.5227H620.951C621.38 43.5321 621.787 43.7089 622.087 44.0151C622.386 44.3213 622.554 44.7327 622.554 45.1611C622.554 45.5894 622.386 46.0008 622.087 46.307C621.787 46.6133 621.38 46.79 620.951 46.7994Z" fill="#763AD8"/>
<path d="M239.692 305.861C239.178 305.86 238.669 305.757 238.195 305.558C237.487 305.274 236.881 304.783 236.457 304.148C236.034 303.514 235.811 302.767 235.819 302.004V298.14C235.818 297.33 235.496 296.553 234.923 295.98C234.35 295.406 233.573 295.084 232.762 295.083C231.742 295.082 230.763 294.676 230.042 293.955C229.321 293.234 228.915 292.256 228.914 291.235V238.299C228.915 237.278 229.32 236.3 230.042 235.579C230.763 234.858 231.741 234.452 232.762 234.451H408.175C409.195 234.452 410.173 234.858 410.895 235.579C411.616 236.3 412.022 237.278 412.023 238.299V291.235C412.022 292.256 411.616 293.234 410.895 293.955C410.173 294.676 409.195 295.082 408.175 295.083H253.299C252.897 295.082 252.499 295.161 252.128 295.314C251.757 295.468 251.42 295.694 251.136 295.978L242.389 304.724C242.037 305.083 241.618 305.368 241.155 305.563C240.692 305.758 240.194 305.859 239.692 305.861Z" fill="white"/>
<path d="M239.692 306.652C239.074 306.651 238.462 306.527 237.892 306.289C237.038 305.946 236.309 305.353 235.798 304.589C235.287 303.824 235.019 302.924 235.029 302.004V298.141C235.028 297.54 234.789 296.964 234.364 296.539C233.939 296.114 233.363 295.875 232.762 295.874C231.532 295.872 230.353 295.383 229.483 294.513C228.613 293.644 228.124 292.465 228.123 291.235V238.299C228.124 237.069 228.613 235.89 229.483 235.02C230.353 234.151 231.532 233.662 232.762 233.66H408.175C409.405 233.662 410.584 234.151 411.453 235.02C412.323 235.89 412.812 237.069 412.814 238.299V291.235C412.812 292.465 412.323 293.644 411.454 294.513C410.584 295.383 409.405 295.872 408.175 295.874H253.299C253.001 295.873 252.706 295.931 252.431 296.045C252.155 296.159 251.906 296.327 251.696 296.538L242.948 305.283C242.523 305.715 242.016 306.059 241.457 306.294C240.898 306.529 240.298 306.65 239.692 306.652ZM232.762 235.241C231.951 235.242 231.174 235.565 230.601 236.138C230.028 236.711 229.705 237.488 229.704 238.299V291.235C229.705 292.046 230.028 292.823 230.601 293.396C231.174 293.969 231.951 294.292 232.762 294.293C233.782 294.294 234.76 294.7 235.482 295.421C236.203 296.143 236.609 297.121 236.61 298.141V302.004C236.61 302.609 236.79 303.2 237.126 303.702C237.462 304.205 237.939 304.597 238.498 304.828C239.056 305.059 239.671 305.12 240.264 305.002C240.857 304.884 241.402 304.593 241.83 304.165L250.577 295.42C250.934 295.061 251.358 294.777 251.825 294.584C252.292 294.39 252.793 294.291 253.299 294.293H408.175C408.985 294.292 409.763 293.969 410.336 293.396C410.909 292.823 411.231 292.046 411.232 291.235V238.299C411.231 237.488 410.909 236.711 410.336 236.138C409.762 235.565 408.985 235.242 408.175 235.241L232.762 235.241Z" fill="#3F3D56"/>
<path d="M393.101 258.417H250.859C250.316 258.417 249.795 258.201 249.411 257.817C249.027 257.433 248.811 256.912 248.811 256.368C248.811 255.825 249.027 255.304 249.411 254.92C249.795 254.536 250.316 254.32 250.859 254.32H393.101C393.644 254.32 394.166 254.536 394.55 254.92C394.934 255.304 395.15 255.825 395.15 256.368C395.15 256.912 394.934 257.433 394.55 257.817C394.166 258.201 393.644 258.417 393.101 258.417Z" fill="#763AD8"/>
<path d="M392.84 267.119H250.859C250.316 267.119 249.795 266.903 249.411 266.519C249.027 266.135 248.811 265.614 248.811 265.071C248.811 264.527 249.027 264.006 249.411 263.622C249.795 263.238 250.316 263.022 250.859 263.022H392.84C393.383 263.022 393.904 263.238 394.288 263.622C394.673 264.006 394.888 264.527 394.888 265.071C394.888 265.614 394.673 266.135 394.288 266.519C393.904 266.903 393.383 267.119 392.84 267.119Z" fill="#E6E6E6"/>
<path d="M392.698 275.821H250.859C250.316 275.821 249.795 275.605 249.411 275.221C249.027 274.837 248.811 274.316 248.811 273.773C248.811 273.229 249.027 272.708 249.411 272.324C249.795 271.94 250.316 271.724 250.859 271.724H392.698C393.242 271.724 393.763 271.94 394.147 272.324C394.531 272.708 394.747 273.229 394.747 273.773C394.747 274.316 394.531 274.837 394.147 275.221C393.763 275.605 393.242 275.821 392.698 275.821Z" fill="#E6E6E6"/>
<path d="M617.102 226.236C617.102 228.157 617.039 230.078 616.905 231.984C616.762 234.261 616.517 236.522 616.185 238.767C615.069 246.328 612.935 253.703 609.843 260.692C609.685 261.04 609.527 261.387 609.369 261.735L609.131 262.257C609.052 262.431 608.965 262.605 608.886 262.771C608.775 263 608.673 263.222 608.562 263.443C608.428 263.72 608.293 263.997 608.151 264.273C608.135 264.305 608.119 264.344 608.095 264.384C607.977 264.621 607.866 264.85 607.74 265.088C607.716 265.139 607.69 265.189 607.66 265.238C607.526 265.507 607.384 265.783 607.241 266.052C607.083 266.337 606.933 266.629 606.775 266.914C606.395 267.618 606 268.313 605.597 269.009C605.478 269.215 605.359 269.42 605.233 269.626C605.122 269.816 605.011 270.005 604.893 270.195C604.814 270.322 604.735 270.456 604.656 270.583C604.529 270.796 604.403 271.002 604.268 271.215C603.975 271.681 603.675 272.148 603.382 272.614H603.375C603.24 272.828 603.098 273.041 602.955 273.247V273.255C602.536 273.887 602.101 274.52 601.666 275.144C601.665 275.144 601.664 275.145 601.663 275.145C601.662 275.145 601.662 275.146 601.661 275.147C601.66 275.147 601.659 275.148 601.659 275.149C601.659 275.15 601.659 275.151 601.659 275.152C601.311 275.658 600.947 276.149 600.591 276.639V276.647C600.354 276.955 600.124 277.271 599.887 277.58C599.697 277.833 599.5 278.093 599.302 278.346C599.263 278.402 599.215 278.449 599.176 278.505V278.513C599.12 278.584 599.065 278.647 599.009 278.718C598.171 279.793 597.307 280.845 596.416 281.873L596.273 282.039C596.226 282.094 596.171 282.149 596.123 282.213C596.044 282.3 595.973 282.387 595.894 282.474C595.823 282.561 595.744 282.648 595.665 282.734C591.02 287.965 585.754 292.609 579.984 296.563C579.217 297.092 578.434 297.606 577.651 298.104C577.453 298.231 577.256 298.357 577.058 298.476C577.002 298.516 576.939 298.555 576.884 298.595C576.773 298.658 576.67 298.721 576.56 298.792C576.457 298.856 576.354 298.919 576.243 298.982C575.824 299.243 575.397 299.496 574.97 299.749C574.867 299.812 574.757 299.875 574.646 299.939C574.543 299.994 574.432 300.057 574.322 300.121C574.322 300.128 574.322 300.128 574.314 300.128H574.306V300.136H574.298C573.768 300.445 573.23 300.745 572.685 301.038C572.392 301.196 572.092 301.362 571.791 301.512C571.111 301.884 570.423 302.239 569.735 302.579C569.49 302.698 569.237 302.817 568.992 302.943C568.786 303.038 568.581 303.141 568.375 303.236C568.312 303.267 568.257 303.291 568.201 303.323C568.027 303.402 567.861 303.481 567.687 303.56C567.497 303.647 567.308 303.734 567.126 303.821C566.912 303.916 566.707 304.01 566.493 304.097C565.702 304.453 564.904 304.793 564.105 305.117C561.243 306.29 558.318 307.304 555.343 308.153C555.209 308.193 555.067 308.232 554.924 308.272C553.651 308.628 552.37 308.952 551.081 309.244C548.827 309.766 546.553 310.193 544.257 310.525H544.241C543.964 310.565 543.695 310.604 543.419 310.644C543.395 310.644 543.371 310.652 543.34 310.652C543.34 310.66 543.34 310.66 543.332 310.652C543.031 310.691 542.723 310.731 542.422 310.77C542.402 310.776 542.38 310.779 542.359 310.778C542.074 310.818 541.782 310.849 541.497 310.881C541.189 310.913 540.88 310.944 540.572 310.976C540.335 311 540.097 311.023 539.86 311.047C539.84 311.054 539.818 311.057 539.797 311.055C539.583 311.071 539.37 311.095 539.156 311.11H539.125C538.943 311.126 538.753 311.142 538.571 311.158C536.365 311.332 534.151 311.411 531.905 311.411C529.477 311.411 527.066 311.316 524.685 311.11H524.662C524.148 311.063 523.642 311.015 523.135 310.968C523.001 310.952 522.875 310.944 522.74 310.928C522.716 310.928 522.685 310.921 522.661 310.921C522.621 310.913 522.582 310.913 522.534 310.905C522.513 310.906 522.492 310.903 522.471 310.897C522.297 310.881 522.123 310.857 521.941 310.841L521.348 310.77C521.151 310.747 520.953 310.715 520.755 310.691C520.708 310.683 520.668 310.683 520.621 310.675C520.478 310.66 520.336 310.636 520.194 310.612C520.123 310.604 520.051 310.596 519.988 310.589C519.846 310.565 519.711 310.549 519.569 310.525H519.561C515.222 309.901 510.939 308.936 506.751 307.639C506.529 307.568 506.308 307.505 506.087 307.434C506.079 307.434 506.071 307.426 506.063 307.426C506 307.402 505.928 307.386 505.865 307.363C505.272 307.173 504.687 306.975 504.102 306.77C503.295 306.501 502.496 306.208 501.698 305.908C501.484 305.821 501.271 305.742 501.057 305.655C500.622 305.489 500.195 305.315 499.768 305.141C499.041 304.849 498.313 304.54 497.594 304.224C496.922 303.924 496.257 303.623 495.593 303.307C495.577 303.299 495.554 303.299 495.538 303.283C495.387 303.212 495.237 303.141 495.095 303.07H495.087C491.445 301.322 487.933 299.317 484.578 297.069C483.502 296.349 482.443 295.606 481.399 294.839C480.561 294.215 479.738 293.582 478.916 292.934C474.859 289.707 471.103 286.119 467.695 282.213V282.205C467.45 281.936 467.22 281.659 466.983 281.383C466.944 281.343 466.912 281.304 466.88 281.272C466.73 281.09 466.588 280.916 466.438 280.742V280.734C466.24 280.505 466.042 280.268 465.852 280.031C465.805 279.975 465.765 279.928 465.726 279.88V279.872C465.568 279.683 465.417 279.493 465.259 279.295C465.18 279.2 465.109 279.106 465.03 279.011V279.003C464.563 278.418 464.113 277.833 463.662 277.232C463.543 277.074 463.425 276.908 463.298 276.742C462.729 275.975 462.175 275.192 461.638 274.409V274.401C461.432 274.109 461.234 273.808 461.029 273.516C460.831 273.215 460.633 272.915 460.436 272.615C460.238 272.298 460.032 271.99 459.835 271.674L459.811 271.626C459.613 271.326 459.416 271.01 459.226 270.701C459.075 270.448 458.925 270.203 458.775 269.958C458.68 269.792 458.577 269.626 458.482 269.452C458.445 269.398 458.411 269.343 458.38 269.286C458.158 268.899 457.937 268.511 457.715 268.124C457.454 267.673 457.201 267.214 456.948 266.756C456.853 266.566 456.751 266.376 456.648 266.187C456.608 266.123 456.577 266.06 456.545 265.997C456.426 265.776 456.308 265.546 456.197 265.317C456.078 265.096 455.96 264.866 455.841 264.637C455.731 264.416 455.612 264.186 455.501 263.957C455.414 263.783 455.335 263.609 455.248 263.435C455.242 263.421 455.234 263.408 455.224 263.396C455.185 263.309 455.145 263.23 455.114 263.151C455.104 263.139 455.096 263.125 455.09 263.111C455.003 262.937 454.924 262.755 454.837 262.581C454.726 262.352 454.623 262.115 454.513 261.886C454.442 261.727 454.363 261.561 454.291 261.395C454.189 261.166 454.078 260.937 453.983 260.7C453.872 260.462 453.769 260.225 453.667 259.98C453.637 259.921 453.611 259.86 453.588 259.798C453.532 259.688 453.493 259.577 453.445 259.466C453.319 259.174 453.192 258.873 453.074 258.581C452.931 258.249 452.797 257.909 452.67 257.577C452.544 257.268 452.425 256.952 452.307 256.636L452.259 256.525C450.417 251.673 449.019 246.664 448.084 241.558V241.551C447.556 238.636 447.179 235.696 446.953 232.743C446.945 232.577 446.929 232.419 446.921 232.261C446.779 230.26 446.716 228.252 446.716 226.236C446.716 225.343 446.732 224.457 446.755 223.572C447.307 205.052 453.912 187.223 465.56 172.813C465.813 172.497 466.066 172.18 466.327 171.864C466.588 171.548 466.857 171.24 467.118 170.931C475.786 160.781 486.719 152.81 499.034 147.659C511.35 142.509 524.703 140.324 538.018 141.28C551.333 142.236 564.237 146.307 575.69 153.165C587.142 160.022 596.823 169.474 603.952 180.759C604.339 181.376 604.727 182 605.098 182.625C605.478 183.257 605.842 183.89 606.205 184.53C613.369 197.262 617.123 211.628 617.102 226.236Z" fill="#F2F2F2"/>
<path d="M535.291 170.523C521.282 174.117 506.926 176.189 492.473 176.702C490.287 176.821 488.096 176.806 485.912 176.657C481.113 176.254 477.002 174.746 472.424 173.922C470.223 173.526 467.772 173.238 465.556 172.811C466.068 172.176 466.589 171.548 467.119 170.929C471.897 171.332 476.75 172.653 481.585 173.267C489.804 174.312 499.014 173.146 505.245 170.27C508.268 168.875 510.584 167.133 513.596 165.731C514.006 165.521 514.45 165.385 514.907 165.33C515.776 165.304 516.634 165.526 517.38 165.971C522.434 168.522 529.772 170.595 536.583 169.455C537.091 169.852 536.126 170.304 535.291 170.523Z" fill="white"/>
<path d="M565.431 179.501C565.493 179.489 565.556 179.48 565.618 179.47C565.356 179.307 565.11 179.122 564.882 178.915L565.431 179.501Z" fill="white"/>
<path d="M606.204 184.534C603.359 184.761 600.5 184.93 597.625 185.041C595.44 185.159 593.249 185.144 591.065 184.997C586.266 184.591 582.155 183.085 577.577 182.261C573.381 181.507 568.282 181.143 565.618 179.47C572.503 178.278 579.637 180.704 586.737 181.607C592.48 182.313 598.302 182.025 603.948 180.757C604.734 181.993 605.486 183.252 606.204 184.534Z" fill="white"/>
<path d="M522.301 263.507C536.433 263.507 547.889 251.798 547.889 237.354C547.889 222.909 536.433 211.2 522.301 211.2C508.169 211.2 496.713 222.909 496.713 237.354C496.713 251.798 508.169 263.507 522.301 263.507Z" fill="#FFB6B6"/>
<path d="M571.791 301.512C571.111 301.884 570.423 302.239 569.735 302.579C569.49 302.698 569.237 302.817 568.992 302.943C568.787 303.038 568.581 303.141 568.375 303.236C568.312 303.267 568.257 303.291 568.201 303.323C568.027 303.402 567.861 303.481 567.687 303.56C567.498 303.647 567.308 303.734 567.126 303.821C566.912 303.916 566.707 304.01 566.493 304.097C565.703 304.453 564.904 304.793 564.105 305.117C561.243 306.29 558.318 307.304 555.344 308.153C555.209 308.193 555.067 308.232 554.924 308.272C553.651 308.628 552.37 308.952 551.081 309.244C548.828 309.766 546.553 310.193 544.257 310.525H544.241C543.964 310.565 543.696 310.604 543.419 310.644C543.395 310.644 543.371 310.652 543.34 310.652C543.34 310.66 543.34 310.66 543.332 310.652C543.031 310.691 542.723 310.731 542.422 310.77C542.402 310.776 542.38 310.779 542.359 310.778C542.074 310.818 541.782 310.849 541.497 310.881C541.189 310.913 540.88 310.944 540.572 310.976C540.335 311 540.098 311.023 539.86 311.047C539.84 311.054 539.818 311.057 539.797 311.055C539.584 311.071 539.37 311.095 539.157 311.11H539.125C538.943 311.126 538.753 311.142 538.571 311.158C536.365 311.332 534.151 311.411 531.905 311.411C529.478 311.411 527.066 311.316 524.686 311.11H524.662C524.148 311.063 523.642 311.015 523.136 310.968C523.001 310.952 522.875 310.944 522.74 310.928C522.716 310.928 522.685 310.921 522.661 310.921C522.622 310.913 522.582 310.913 522.535 310.905C522.513 310.906 522.492 310.903 522.471 310.897C522.297 310.881 522.123 310.857 521.942 310.842L521.348 310.77C521.151 310.747 520.953 310.715 520.755 310.691C520.708 310.683 520.668 310.683 520.621 310.676C520.479 310.66 520.336 310.636 520.194 310.612C520.123 310.604 520.052 310.596 519.988 310.589C519.846 310.565 519.712 310.549 519.569 310.525H519.561C515.222 309.901 510.939 308.936 506.751 307.64C506.529 307.568 506.308 307.505 506.087 307.434C507.108 302.673 509.21 298.211 512.23 294.391C515.251 290.572 519.109 287.498 523.507 285.407C522.419 284.371 521.667 283.032 521.348 281.564C521.143 280.618 521.127 279.641 521.301 278.688C521.474 277.736 521.835 276.827 522.361 276.014C523.387 274.439 524.997 273.335 526.836 272.947L538.556 270.496C540.442 270.128 542.397 270.52 543.997 271.586C545.596 272.652 546.71 274.306 547.096 276.188C547.215 276.765 547.268 277.354 547.254 277.943C558.538 285.454 566.659 293.242 571.791 301.512Z" fill="#763AD8"/>
<path d="M590.772 226.011C586.422 220.94 584.354 214.211 580.877 208.453C577.4 202.694 571.35 197.54 564.957 198.88C560.551 199.804 557.146 203.691 555.422 208.026C553.698 212.36 553.375 217.14 553.073 221.822C553.179 212.2 546.838 202.871 538.104 199.8C529.369 196.73 518.916 200.155 513.428 207.886C511.033 205.666 507.906 204.402 504.641 204.334C501.376 204.265 498.2 205.397 495.713 207.514C490.804 211.901 489.718 220.251 493.328 225.846C496.938 231.442 504.758 233.527 510.495 230.423L512.524 232.289C511.382 236.282 513.596 240.998 517.318 242.501C520.337 243.72 524.598 243.517 525.727 246.684C526.516 248.897 525.041 251.259 523.472 252.959C521.903 254.66 520.04 256.416 519.851 258.769C519.567 262.319 523.236 264.806 526.572 265.555C534.615 267.361 543.539 263.637 548.175 256.54C548.265 256.403 548.362 256.266 548.467 256.129C551.068 252.803 552.963 248.982 554.037 244.9C555.111 240.817 555.342 236.558 554.714 232.383C554.453 230.743 554.716 229.523 555.847 229.135C560.736 227.456 574.434 230.98 578.579 234.164C582.725 237.349 586.044 241.564 590.037 244.955C594.031 248.345 599.119 250.961 604.189 250.037C608.25 249.298 611.704 246.351 614.028 242.795C616.351 239.24 617.688 235.096 618.886 230.977C609.907 236.164 597.618 233.993 590.772 226.011Z" fill="#2F2E41"/>
<path d="M65.4956 173.264C65.4956 175.185 65.5588 177.106 65.6933 179.011C65.8356 181.289 66.0807 183.55 66.4129 185.795C67.529 193.356 69.6623 200.73 72.7548 207.719C72.9129 208.067 73.0711 208.415 73.2293 208.763L73.4665 209.285C73.5456 209.459 73.6325 209.633 73.7116 209.799C73.8223 210.028 73.9251 210.249 74.0358 210.471C74.1703 210.747 74.3047 211.024 74.447 211.301C74.4628 211.333 74.4787 211.372 74.5024 211.412C74.621 211.649 74.7317 211.878 74.8582 212.115C74.8815 212.167 74.9079 212.217 74.9373 212.265C75.0717 212.534 75.2141 212.811 75.3564 213.08C75.5146 213.365 75.6648 213.657 75.823 213.942C76.2025 214.645 76.5979 215.341 77.0012 216.037C77.1198 216.242 77.2384 216.448 77.3649 216.654C77.4757 216.843 77.5864 217.033 77.705 217.223C77.7841 217.349 77.8631 217.484 77.9422 217.61C78.0687 217.824 78.1953 218.029 78.3297 218.243C78.6223 218.709 78.9228 219.176 79.2153 219.642H79.2233C79.3577 219.856 79.5 220.069 79.6424 220.275V220.283C80.0615 220.915 80.4964 221.548 80.9313 222.172C80.9324 222.172 80.9334 222.172 80.9344 222.173C80.9353 222.173 80.9362 222.174 80.937 222.174C80.9377 222.175 80.9383 222.176 80.9387 222.177C80.9391 222.178 80.9392 222.179 80.9392 222.18C81.2872 222.686 81.6509 223.176 82.0067 223.666V223.674C82.244 223.983 82.4733 224.299 82.7105 224.607C82.9003 224.86 83.098 225.121 83.2957 225.374C83.3352 225.429 83.3827 225.477 83.4222 225.532V225.54C83.4776 225.611 83.5329 225.675 83.5883 225.746C84.4265 226.821 85.2911 227.873 86.182 228.9L86.3243 229.066C86.3718 229.122 86.4271 229.177 86.4746 229.24C86.5537 229.327 86.6248 229.414 86.7039 229.501C86.7751 229.588 86.8541 229.675 86.9332 229.762C91.5775 234.993 96.8434 239.637 102.614 243.59C103.381 244.12 104.164 244.634 104.947 245.132C105.145 245.259 105.342 245.385 105.54 245.504C105.595 245.543 105.659 245.583 105.714 245.622C105.825 245.685 105.927 245.749 106.038 245.82C106.141 245.883 106.244 245.946 106.354 246.01C106.774 246.271 107.201 246.524 107.628 246.777C107.73 246.84 107.841 246.903 107.952 246.966C108.055 247.022 108.165 247.085 108.276 247.148C108.276 247.156 108.276 247.156 108.284 247.156H108.292V247.164H108.3C108.83 247.472 109.367 247.773 109.913 248.065C110.205 248.223 110.506 248.389 110.806 248.54C111.487 248.911 112.174 249.267 112.862 249.607C113.108 249.726 113.361 249.844 113.606 249.971C113.811 250.066 114.017 250.168 114.223 250.263C114.286 250.295 114.341 250.319 114.397 250.35C114.571 250.429 114.737 250.508 114.911 250.587C115.1 250.674 115.29 250.761 115.472 250.848C115.685 250.943 115.891 251.038 116.105 251.125C116.895 251.481 117.694 251.821 118.493 252.145C121.355 253.318 124.28 254.332 127.254 255.181C127.389 255.221 127.531 255.26 127.673 255.3C128.947 255.655 130.228 255.98 131.517 256.272C133.77 256.794 136.045 257.221 138.341 257.553H138.357C138.634 257.592 138.902 257.632 139.179 257.671C139.203 257.671 139.227 257.679 139.258 257.679C139.258 257.687 139.258 257.687 139.266 257.679C139.567 257.719 139.875 257.758 140.176 257.798C140.196 257.804 140.217 257.807 140.239 257.806C140.523 257.845 140.816 257.877 141.101 257.909C141.409 257.94 141.717 257.972 142.026 258.004C142.263 258.027 142.5 258.051 142.738 258.075C142.758 258.082 142.779 258.084 142.801 258.083C143.014 258.098 143.228 258.122 143.441 258.138H143.473C143.655 258.154 143.845 258.17 144.027 258.185C146.233 258.359 148.447 258.438 150.693 258.438C153.12 258.438 155.532 258.344 157.912 258.138H157.936C158.45 258.091 158.956 258.043 159.462 257.996C159.597 257.98 159.723 257.972 159.858 257.956C159.881 257.956 159.913 257.948 159.937 257.948C159.976 257.94 160.016 257.94 160.063 257.932C160.085 257.933 160.106 257.931 160.127 257.924C160.301 257.909 160.474 257.885 160.656 257.869L161.249 257.798C161.447 257.774 161.645 257.743 161.843 257.719C161.89 257.711 161.93 257.711 161.977 257.703C162.119 257.687 162.262 257.664 162.404 257.64C162.475 257.632 162.546 257.624 162.61 257.616C162.752 257.592 162.886 257.577 163.029 257.553H163.037C167.376 256.928 171.659 255.963 175.847 254.667C176.068 254.596 176.29 254.533 176.511 254.462C176.519 254.462 176.527 254.454 176.535 254.454C176.598 254.43 176.669 254.414 176.733 254.39C177.326 254.201 177.911 254.003 178.496 253.797C179.303 253.529 180.101 253.236 180.9 252.936C181.113 252.849 181.327 252.77 181.541 252.683C181.975 252.517 182.402 252.343 182.829 252.169C183.557 251.876 184.284 251.568 185.004 251.252C185.676 250.951 186.34 250.651 187.005 250.334C187.021 250.327 187.044 250.327 187.06 250.311C187.21 250.24 187.361 250.168 187.503 250.097H187.511C191.152 248.35 194.664 246.344 198.02 244.096C199.096 243.377 200.155 242.634 201.199 241.867C202.037 241.242 202.86 240.61 203.682 239.961C207.739 236.735 211.495 233.146 214.903 229.24V229.232C215.148 228.964 215.377 228.687 215.615 228.41C215.654 228.371 215.686 228.331 215.717 228.3C215.868 228.118 216.01 227.944 216.16 227.77V227.762C216.358 227.533 216.556 227.295 216.745 227.058C216.793 227.003 216.832 226.956 216.872 226.908V226.9C217.03 226.71 217.18 226.521 217.338 226.323C217.418 226.228 217.489 226.133 217.568 226.038V226.03C218.034 225.445 218.485 224.86 218.936 224.259C219.054 224.101 219.173 223.935 219.3 223.769C219.869 223.002 220.422 222.22 220.96 221.437V221.429C221.166 221.136 221.363 220.836 221.569 220.543C221.767 220.243 221.964 219.943 222.162 219.642C222.36 219.326 222.565 219.018 222.763 218.701L222.787 218.654C222.985 218.353 223.182 218.037 223.372 217.729C223.522 217.476 223.673 217.231 223.823 216.986C223.918 216.82 224.02 216.654 224.115 216.48C224.152 216.426 224.187 216.371 224.218 216.314C224.44 215.926 224.661 215.539 224.882 215.151C225.143 214.701 225.396 214.242 225.649 213.784C225.744 213.594 225.847 213.404 225.95 213.214C225.989 213.151 226.021 213.088 226.053 213.025C226.171 212.803 226.29 212.574 226.401 212.345C226.519 212.123 226.638 211.894 226.757 211.665C226.867 211.443 226.986 211.214 227.097 210.985C227.184 210.811 227.263 210.637 227.35 210.463C227.356 210.449 227.364 210.435 227.373 210.423C227.413 210.336 227.452 210.257 227.484 210.178C227.494 210.166 227.502 210.153 227.508 210.139C227.595 209.965 227.674 209.783 227.761 209.609C227.871 209.38 227.974 209.143 228.085 208.913C228.156 208.755 228.235 208.589 228.306 208.423C228.409 208.194 228.52 207.965 228.615 207.727C228.726 207.49 228.828 207.253 228.931 207.008C228.961 206.949 228.987 206.888 229.01 206.826C229.066 206.715 229.105 206.605 229.153 206.494C229.279 206.201 229.406 205.901 229.524 205.608C229.667 205.276 229.801 204.936 229.927 204.604C230.054 204.296 230.173 203.98 230.291 203.663L230.339 203.553C232.181 198.701 233.579 193.691 234.514 188.586V188.578C235.041 185.664 235.419 182.724 235.645 179.771C235.653 179.605 235.668 179.446 235.676 179.288C235.819 177.288 235.882 175.28 235.882 173.264C235.882 172.37 235.866 171.485 235.842 170.599C235.29 152.08 228.685 134.251 217.038 119.841C216.785 119.524 216.532 119.208 216.271 118.892C216.01 118.576 215.741 118.267 215.48 117.959C206.812 107.809 195.879 99.8374 183.564 94.687C171.248 89.5366 157.895 87.3515 144.58 88.3078C131.265 89.2641 118.361 93.3351 106.908 100.192C95.4556 107.05 85.7747 116.502 78.646 127.786C78.2586 128.403 77.8711 129.028 77.4994 129.652C77.1199 130.285 76.7561 130.917 76.3923 131.558C69.2285 144.29 65.475 158.655 65.4956 173.264Z" fill="#F2F2F2"/>
<path d="M147.307 117.551C161.315 121.145 175.671 123.216 190.125 123.73C192.311 123.849 194.502 123.834 196.685 123.685C201.485 123.281 205.595 121.773 210.174 120.949C212.375 120.554 214.826 120.265 217.042 119.838C216.53 119.203 216.009 118.576 215.478 117.956C210.701 118.36 205.848 119.681 201.013 120.295C192.793 121.34 183.584 120.174 177.353 117.298C174.33 115.902 172.014 114.161 169.002 112.759C168.592 112.548 168.148 112.412 167.691 112.357C166.822 112.331 165.964 112.554 165.218 112.999C160.164 115.55 152.826 117.623 146.015 116.482C145.507 116.879 146.472 117.332 147.307 117.551Z" fill="white"/>
<path d="M117.167 126.528C117.105 126.517 117.042 126.508 116.98 126.497C117.242 126.335 117.488 126.149 117.716 125.943L117.167 126.528Z" fill="white"/>
<path d="M76.394 131.561C79.2387 131.788 82.0982 131.958 84.9726 132.069C87.1583 132.187 89.3491 132.172 91.533 132.024C96.3321 131.619 100.443 130.113 105.021 129.288C109.217 128.534 114.316 128.171 116.98 126.497C110.094 125.306 102.96 127.731 95.8605 128.634C90.1175 129.34 84.2957 129.053 78.6502 127.785C77.8642 129.021 77.1121 130.28 76.394 131.561Z" fill="white"/>
<path d="M110.807 248.54C111.487 248.911 112.175 249.267 112.863 249.607C113.108 249.726 113.361 249.844 113.606 249.971C113.811 250.066 114.017 250.168 114.223 250.263C114.286 250.295 114.341 250.319 114.397 250.35C114.571 250.429 114.737 250.508 114.911 250.587C115.1 250.674 115.29 250.761 115.472 250.848C115.686 250.943 115.891 251.038 116.105 251.125C116.895 251.481 117.694 251.821 118.493 252.145C121.355 253.318 124.28 254.332 127.254 255.181C127.389 255.221 127.531 255.26 127.674 255.3C128.947 255.655 130.228 255.98 131.517 256.272C133.77 256.794 136.045 257.221 138.341 257.553H138.357C138.634 257.592 138.902 257.632 139.179 257.672C139.203 257.672 139.227 257.679 139.258 257.679C139.258 257.687 139.258 257.687 139.266 257.679C139.567 257.719 139.875 257.759 140.176 257.798C140.196 257.804 140.217 257.807 140.239 257.806C140.524 257.845 140.816 257.877 141.101 257.909C141.409 257.94 141.718 257.972 142.026 258.004C142.263 258.027 142.5 258.051 142.738 258.075C142.758 258.082 142.78 258.084 142.801 258.083C143.014 258.098 143.228 258.122 143.441 258.138H143.473C143.655 258.154 143.845 258.17 144.027 258.186C146.233 258.359 148.447 258.438 150.693 258.438C153.12 258.438 155.532 258.344 157.912 258.138H157.936C158.45 258.091 158.956 258.043 159.462 257.996C159.597 257.98 159.723 257.972 159.858 257.956C159.882 257.956 159.913 257.948 159.937 257.948C159.976 257.94 160.016 257.94 160.063 257.932C160.085 257.933 160.106 257.931 160.127 257.925C160.301 257.909 160.475 257.885 160.656 257.869L161.25 257.798C161.447 257.774 161.645 257.743 161.843 257.719C161.89 257.711 161.93 257.711 161.977 257.703C162.119 257.687 162.262 257.664 162.404 257.64C162.475 257.632 162.546 257.624 162.61 257.616C162.752 257.593 162.886 257.577 163.029 257.553H163.037C167.376 256.928 171.659 255.964 175.847 254.667C176.068 254.596 176.29 254.533 176.511 254.462C175.49 249.701 173.388 245.238 170.368 241.419C167.347 237.6 163.489 234.526 159.091 232.435C160.179 231.398 160.931 230.06 161.25 228.592C161.455 227.646 161.471 226.668 161.297 225.716C161.124 224.764 160.763 223.855 160.237 223.042C159.211 221.466 157.601 220.363 155.762 219.974L144.042 217.523C142.156 217.156 140.2 217.547 138.601 218.613C137.002 219.679 135.888 221.333 135.502 223.216C135.383 223.793 135.33 224.382 135.344 224.971C124.06 232.482 115.939 240.27 110.807 248.54Z" fill="#763AD8"/>
<path d="M157.168 209.614C172.922 209.614 185.693 196.845 185.693 181.093C185.693 165.342 172.922 152.573 157.168 152.573C141.414 152.573 128.642 165.342 128.642 181.093C128.642 196.845 141.414 209.614 157.168 209.614Z" fill="#9E616A"/>
<path d="M153.114 208.09C145.973 210.018 138.1 207.454 132.527 202.591C126.954 197.728 123.468 190.836 121.459 183.718C119.988 178.505 119.29 172.719 121.612 167.825C123.933 162.93 130.181 159.629 135.002 162.101C132.028 158.637 133.514 152.907 136.987 149.944C140.46 146.981 145.229 146.131 149.771 145.667C156.362 144.993 163.171 144.917 169.444 147.053C175.717 149.188 181.416 153.856 183.379 160.183C185.384 161.117 187.642 161.359 189.799 160.872C191.957 160.385 193.892 159.196 195.301 157.492C195.664 159.449 195.373 161.472 194.471 163.246C193.569 165.021 192.107 166.449 190.311 167.31L199.922 164.194C201.575 167.692 198.679 172.021 194.975 173.142C191.272 174.262 187.274 173.037 183.759 171.419C180.245 169.801 176.839 167.755 173.021 167.124C169.204 166.492 164.719 167.719 162.954 171.161C162.029 172.964 161.981 175.076 161.444 177.03C160.907 178.983 159.546 181.009 157.526 181.169C156.25 181.27 155 180.59 153.727 180.729C152.946 180.883 152.227 181.261 151.657 181.818C151.088 182.374 150.693 183.084 150.521 183.861C150.204 185.421 150.2 187.028 150.51 188.589L152.951 207.247L153.114 208.09Z" fill="#2F2E41"/>
</g>
<defs>
<clipPath id="clip0_2410_71">
<rect width="640" height="498" fill="white"/>
</clipPath>
</defs>
</svg>
